<svg xmlns="http://www.w3.org/2000/svg" xmlns:xlink="http://www.w3.org/1999/xlink" width="500" zoomAndPan="magnify" viewBox="0 0 375 374.999991" height="500" preserveAspectRatio="xMidYMid meet" version="1.0"><defs><g/><clipPath id="5ec074679d"><path d="M 54 144.671875 L 107 144.671875 L 107 203 L 54 203 Z M 54 144.671875 " clip-rule="nonzero"/></clipPath><clipPath id="024dc6c033"><path d="M 83 202 L 124 202 L 124 230.171875 L 83 230.171875 Z M 83 202 " clip-rule="nonzero"/></clipPath><clipPath id="a404584e63"><path d="M 38 202 L 84 202 L 84 230.171875 L 38 230.171875 Z M 38 202 " clip-rule="nonzero"/></clipPath></defs><path fill="#a6a6a6" d="M 82.410156 175.070312 C 82.476562 174.9375 82.542969 174.871094 82.542969 174.871094 C 82.941406 174.269531 82.808594 173.472656 82.210938 173.003906 C 81.609375 172.605469 80.746094 172.738281 80.34375 173.339844 C 80.34375 173.339844 80.277344 173.472656 80.144531 173.671875 C 79.746094 174.269531 79.945312 175.136719 80.609375 175.46875 C 80.8125 175.605469 81.078125 175.671875 81.277344 175.671875 C 81.675781 175.738281 82.144531 175.46875 82.410156 175.070312 Z M 82.410156 175.070312 " fill-opacity="1" fill-rule="nonzero"/><g clip-path="url(#5ec074679d)"><path fill="#a6a6a6" d="M 87.742188 156.8125 C 87.742188 156.878906 87.742188 156.878906 87.742188 156.945312 C 87.742188 157.011719 88.007812 160.679688 85.542969 163.34375 C 85.476562 163.410156 85.410156 163.476562 85.410156 163.542969 C 85.339844 163.675781 83.609375 166.675781 85.875 170.539062 C 86.207031 171.074219 86.339844 171.339844 100.667969 176.738281 C 101.667969 177.136719 102.464844 177.800781 102.933594 178.601562 C 103.597656 179.734375 104.265625 181.734375 103.800781 184.730469 C 103.730469 185.132812 102.066406 194.460938 103.53125 202.257812 C 103.597656 202.523438 103.730469 202.789062 103.933594 202.988281 C 104.53125 202.988281 105.132812 202.921875 105.796875 202.921875 C 106.0625 202.65625 106.265625 202.191406 106.132812 201.722656 C 104.796875 194.394531 106.398438 185.199219 106.398438 185.132812 C 106.996094 181.332031 106.0625 178.734375 105.199219 177.203125 C 104.398438 175.871094 103.132812 174.804688 101.535156 174.203125 C 94.335938 171.472656 89.140625 169.472656 87.941406 168.875 C 86.875 166.875 87.40625 165.34375 87.605469 164.941406 C 90.539062 161.609375 90.40625 157.414062 90.339844 156.746094 C 90.40625 152.816406 89.339844 149.816406 87.273438 147.683594 C 84.542969 144.820312 80.8125 144.820312 80.675781 144.820312 C 80.542969 144.820312 76.8125 144.820312 74.015625 147.75 C 71.949219 149.882812 70.882812 152.949219 70.949219 156.8125 C 70.882812 157.480469 70.75 161.675781 73.679688 165.007812 C 73.882812 165.410156 74.414062 166.941406 73.347656 168.941406 C 72.148438 169.539062 66.953125 171.605469 59.753906 174.269531 C 58.222656 174.871094 56.890625 175.9375 56.089844 177.269531 C 55.222656 178.734375 54.292969 181.332031 54.890625 185.199219 C 54.890625 185.265625 56.488281 194.394531 55.15625 201.789062 C 55.089844 202.257812 55.222656 202.65625 55.492188 202.988281 C 56.15625 202.988281 56.757812 202.988281 57.355469 202.988281 C 57.554688 202.789062 57.691406 202.589844 57.757812 202.257812 C 59.15625 194.394531 57.554688 185.132812 57.488281 184.730469 C 57.023438 181.667969 57.691406 179.734375 58.355469 178.601562 C 58.820312 177.734375 59.6875 177.070312 60.621094 176.738281 C 74.878906 171.339844 75.082031 171.074219 75.414062 170.539062 C 77.679688 166.675781 75.945312 163.675781 75.878906 163.542969 C 75.8125 163.476562 75.8125 163.410156 75.746094 163.34375 C 73.28125 160.679688 73.546875 157.011719 73.546875 156.945312 C 73.546875 156.878906 73.546875 156.878906 73.546875 156.8125 C 73.480469 153.613281 74.28125 151.214844 75.8125 149.617188 C 77.878906 147.550781 80.609375 147.484375 80.675781 147.484375 C 80.675781 147.484375 83.410156 147.550781 85.476562 149.617188 C 87.007812 151.214844 87.808594 153.613281 87.742188 156.8125 Z M 87.742188 156.8125 " fill-opacity="1" fill-rule="nonzero"/></g><path fill="#a6a6a6" d="M 97.46875 185.132812 C 96.734375 185.132812 96.136719 185.730469 96.136719 186.464844 C 96.136719 186.53125 96.136719 193.261719 94.070312 199.457031 C 94.070312 199.457031 94.070312 199.523438 94.070312 199.523438 C 94.003906 199.65625 93.472656 201.921875 93.472656 204.589844 C 94.335938 204.320312 95.203125 204.121094 96.136719 203.921875 C 96.203125 202.054688 96.601562 200.523438 96.667969 200.257812 C 98.867188 193.660156 98.867188 186.796875 98.867188 186.464844 C 98.800781 185.730469 98.203125 185.132812 97.46875 185.132812 Z M 97.46875 185.132812 " fill-opacity="1" fill-rule="nonzero"/><path fill="#a6a6a6" d="M 76.078125 187.132812 C 76.078125 187.398438 76.078125 187.597656 76.078125 187.863281 C 76.078125 188.597656 76.613281 189.195312 77.347656 189.261719 C 77.347656 189.261719 77.347656 189.261719 77.414062 189.261719 C 78.144531 189.261719 78.746094 188.664062 78.746094 187.996094 C 78.746094 187.796875 78.746094 187.597656 78.746094 187.332031 C 78.8125 186.597656 78.210938 186 77.480469 185.929688 C 76.746094 185.796875 76.148438 186.398438 76.078125 187.132812 Z M 76.078125 187.132812 " fill-opacity="1" fill-rule="nonzero"/><path fill="#a6a6a6" d="M 80.34375 207.785156 C 80.34375 207.785156 80.410156 207.785156 80.410156 207.785156 C 81.144531 207.71875 81.675781 207.121094 81.609375 206.386719 C 81.609375 206.1875 81.542969 205.921875 81.542969 205.65625 C 81.476562 204.921875 80.8125 204.386719 80.078125 204.457031 C 79.34375 204.523438 78.8125 205.1875 78.878906 205.921875 C 78.878906 206.121094 78.945312 206.320312 78.945312 206.585938 C 79.078125 207.253906 79.679688 207.785156 80.34375 207.785156 Z M 80.34375 207.785156 " fill-opacity="1" fill-rule="nonzero"/><path fill="#a6a6a6" d="M 77.347656 197.527344 C 77.480469 198.125 78.078125 198.523438 78.613281 198.523438 C 78.746094 198.523438 78.878906 198.523438 78.945312 198.457031 C 79.679688 198.257812 80.078125 197.527344 79.878906 196.792969 L 79.679688 196.125 C 79.476562 195.394531 78.746094 194.992188 78.011719 195.195312 C 77.28125 195.394531 76.878906 196.125 77.078125 196.859375 Z M 77.347656 197.527344 " fill-opacity="1" fill-rule="nonzero"/><path fill="#a6a6a6" d="M 81.410156 211.917969 C 81.542969 211.785156 81.675781 211.519531 81.675781 211.316406 C 81.675781 211.117188 81.742188 210.851562 81.742188 210.585938 C 81.808594 209.851562 81.210938 209.253906 80.476562 209.1875 C 79.945312 209.121094 79.542969 209.386719 79.277344 209.851562 C 80.011719 210.453125 80.746094 211.183594 81.410156 211.917969 Z M 81.410156 211.917969 " fill-opacity="1" fill-rule="nonzero"/><path fill="#a6a6a6" d="M 76.28125 192.726562 C 76.347656 193.394531 76.945312 193.859375 77.613281 193.859375 C 77.679688 193.859375 77.746094 193.859375 77.8125 193.859375 C 78.546875 193.792969 79.078125 193.128906 78.945312 192.394531 C 78.945312 192.195312 78.878906 191.996094 78.878906 191.730469 C 78.8125 190.996094 78.144531 190.460938 77.414062 190.527344 C 76.679688 190.597656 76.148438 191.261719 76.214844 191.996094 C 76.28125 192.261719 76.28125 192.527344 76.28125 192.726562 Z M 76.28125 192.726562 " fill-opacity="1" fill-rule="nonzero"/><path fill="#a6a6a6" d="M 78.410156 202.054688 C 78.546875 202.722656 79.078125 203.121094 79.746094 203.121094 C 79.8125 203.121094 79.945312 203.121094 80.011719 203.121094 C 80.746094 202.988281 81.210938 202.257812 81.078125 201.589844 C 81.011719 201.390625 81.011719 201.125 80.945312 200.921875 C 80.8125 200.191406 80.078125 199.722656 79.34375 199.859375 C 78.613281 199.992188 78.144531 200.722656 78.277344 201.457031 C 78.277344 201.589844 78.34375 201.789062 78.410156 202.054688 Z M 78.410156 202.054688 " fill-opacity="1" fill-rule="nonzero"/><path fill="#a6a6a6" d="M 76.746094 182.199219 C 76.679688 182.398438 76.679688 182.667969 76.613281 182.867188 C 76.480469 183.597656 76.945312 184.265625 77.679688 184.464844 C 77.746094 184.464844 77.878906 184.464844 77.945312 184.464844 C 78.546875 184.464844 79.144531 184 79.277344 183.398438 C 79.34375 183.199219 79.34375 183 79.410156 182.734375 C 79.542969 182 79.144531 181.332031 78.410156 181.132812 C 77.679688 181.066406 76.945312 181.535156 76.746094 182.199219 Z M 76.746094 182.199219 " fill-opacity="1" fill-rule="nonzero"/><path fill="#a6a6a6" d="M 78.746094 179.867188 C 78.878906 179.933594 79.078125 179.933594 79.210938 179.933594 C 79.746094 179.933594 80.277344 179.601562 80.476562 179.070312 C 80.542969 178.867188 80.609375 178.667969 80.675781 178.46875 C 80.945312 177.800781 80.609375 177.003906 79.945312 176.738281 C 79.277344 176.46875 78.480469 176.804688 78.210938 177.46875 C 78.144531 177.667969 78.011719 177.867188 77.945312 178.136719 C 77.746094 178.867188 78.078125 179.601562 78.746094 179.867188 Z M 78.746094 179.867188 " fill-opacity="1" fill-rule="nonzero"/><g clip-path="url(#024dc6c033)"><path fill="#a6a6a6" d="M 121.257812 203.121094 C 120.921875 204.320312 115.125 205.589844 109.0625 205.722656 C 97.003906 205.253906 88.339844 207.988281 83.277344 213.71875 C 83.210938 213.851562 83.078125 213.917969 83.007812 214.050781 C 83.542969 214.851562 84.007812 215.714844 84.410156 216.515625 C 84.675781 216.183594 84.941406 215.78125 85.273438 215.449219 C 89.738281 210.320312 97.734375 207.921875 108.996094 208.320312 C 108.996094 208.320312 109.0625 208.320312 109.0625 208.320312 C 111.996094 208.253906 117.859375 207.921875 121.257812 206.253906 C 121.125 208.71875 120.324219 212.652344 117.257812 216.382812 C 111.792969 223.046875 101.464844 226.710938 86.609375 227.308594 C 86.542969 228.441406 86.472656 229.175781 86.40625 229.308594 C 86.339844 229.574219 86.273438 229.777344 86.207031 230.042969 C 102.132812 229.507812 113.328125 225.511719 119.324219 218.113281 C 125.121094 211.050781 123.855469 203.523438 123.789062 203.1875 C 123.65625 202.589844 123.1875 202.125 122.523438 202.125 C 121.988281 202.125 121.390625 202.523438 121.257812 203.121094 Z M 121.257812 203.121094 " fill-opacity="1" fill-rule="nonzero"/></g><g clip-path="url(#a404584e63)"><path fill="#a6a6a6" d="M 77.480469 230.109375 C 77.546875 230.109375 77.546875 230.109375 77.480469 230.109375 C 78.210938 230.109375 78.8125 229.507812 78.8125 228.777344 C 78.8125 228.042969 78.277344 227.441406 77.480469 227.441406 C 61.820312 227.042969 50.960938 223.378906 45.296875 216.515625 C 42.230469 212.785156 41.429688 208.851562 41.296875 206.320312 C 44.695312 207.988281 50.558594 208.320312 53.492188 208.386719 C 53.492188 208.386719 53.558594 208.386719 53.558594 208.386719 C 64.820312 207.988281 72.75 210.320312 77.28125 215.449219 C 82.277344 221.113281 81.144531 228.441406 81.144531 228.507812 C 81.011719 229.242188 81.476562 229.910156 82.210938 230.042969 C 82.941406 230.175781 83.609375 229.707031 83.742188 228.976562 C 83.808594 228.644531 85.140625 220.378906 79.277344 213.71875 C 74.214844 207.988281 65.550781 205.253906 53.492188 205.722656 C 47.5625 205.589844 41.632812 204.320312 41.296875 203.121094 C 41.296875 202.523438 40.699219 202.125 40.097656 202.125 C 39.5 202.125 38.964844 202.589844 38.832031 203.1875 C 38.765625 203.523438 37.5 210.984375 43.296875 218.113281 C 49.492188 225.644531 60.953125 229.707031 77.480469 230.109375 Z M 77.480469 230.109375 " fill-opacity="1" fill-rule="nonzero"/></g><path fill="#a6a6a6" d="M 89.339844 223.445312 C 89.871094 223.445312 90.339844 223.113281 90.539062 222.644531 C 92.40625 218.25 98.269531 217.847656 103.53125 217.515625 C 107.53125 217.25 110.996094 217.046875 112.261719 214.851562 C 112.59375 214.183594 112.394531 213.382812 111.792969 213.050781 C 111.128906 212.71875 110.328125 212.917969 109.996094 213.515625 C 109.460938 214.515625 106.199219 214.714844 103.398438 214.851562 C 97.734375 215.183594 90.671875 215.648438 88.140625 221.578125 C 87.875 222.246094 88.140625 223.046875 88.875 223.3125 C 89.007812 223.378906 89.140625 223.445312 89.339844 223.445312 Z M 89.339844 223.445312 " fill-opacity="1" fill-rule="nonzero"/><path fill="#a6a6a6" d="M 61.753906 214.851562 C 58.957031 214.648438 55.691406 214.449219 55.15625 213.515625 C 54.824219 212.851562 53.957031 212.652344 53.359375 213.050781 C 52.691406 213.382812 52.492188 214.25 52.890625 214.851562 C 54.15625 217.046875 57.621094 217.316406 61.621094 217.515625 C 66.816406 217.847656 72.683594 218.25 74.613281 222.644531 C 74.8125 223.179688 75.347656 223.445312 75.8125 223.445312 C 76.011719 223.445312 76.148438 223.378906 76.347656 223.3125 C 77.011719 223.046875 77.347656 222.246094 77.078125 221.578125 C 74.480469 215.648438 67.417969 215.183594 61.753906 214.851562 Z M 61.753906 214.851562 " fill-opacity="1" fill-rule="nonzero"/><path fill="#a6a6a6" d="M 65.21875 186.464844 C 65.21875 185.730469 64.621094 185.132812 63.886719 185.132812 C 63.152344 185.132812 62.554688 185.730469 62.554688 186.464844 C 62.554688 186.730469 62.554688 193.660156 64.753906 200.257812 C 64.820312 200.523438 65.152344 201.921875 65.285156 203.722656 C 66.21875 203.855469 67.085938 204.054688 67.949219 204.253906 C 67.882812 201.722656 67.351562 199.65625 67.351562 199.523438 C 67.351562 199.523438 67.351562 199.457031 67.351562 199.457031 C 65.21875 193.261719 65.21875 186.53125 65.21875 186.464844 Z M 65.21875 186.464844 " fill-opacity="1" fill-rule="nonzero"/><g fill="#545454" fill-opacity="1"><g transform="translate(133.498033, 201.374987)"><g><path d="M 30.109375 -23.015625 C 32.566406 -20.335938 33.796875 -17.050781 33.796875 -13.15625 C 33.796875 -9.269531 32.566406 -5.976562 30.109375 -3.28125 C 27.648438 -0.582031 24.523438 0.765625 20.734375 0.765625 C 17.253906 0.765625 14.390625 -0.328125 12.140625 -2.515625 L 12.140625 13.3125 L 3.078125 13.3125 L 3.078125 -26.265625 L 12.03125 -26.265625 L 12.03125 -23.296875 L 12.140625 -23.296875 C 14.390625 -25.785156 17.253906 -27.03125 20.734375 -27.03125 C 24.523438 -27.03125 27.648438 -25.691406 30.109375 -23.015625 Z M 22.40625 -8.703125 C 23.582031 -9.867188 24.171875 -11.351562 24.171875 -13.15625 C 24.171875 -14.96875 23.601562 -16.441406 22.46875 -17.578125 C 21.34375 -18.722656 19.863281 -19.296875 18.03125 -19.296875 C 16.25 -19.296875 14.785156 -18.71875 13.640625 -17.5625 C 12.503906 -16.40625 11.9375 -14.9375 11.9375 -13.15625 C 11.9375 -11.351562 12.523438 -9.867188 13.703125 -8.703125 C 14.878906 -7.546875 16.320312 -6.96875 18.03125 -6.96875 C 19.769531 -6.96875 21.226562 -7.546875 22.40625 -8.703125 Z M 22.40625 -8.703125 "/></g></g></g><g fill="#545454" fill-opacity="1"><g transform="translate(163.65299, 201.374987)"><g><path d="M 5.546875 -3.125 C 2.628906 -5.71875 1.171875 -9.046875 1.171875 -13.109375 C 1.171875 -17.171875 2.691406 -20.503906 5.734375 -23.109375 C 8.773438 -25.722656 12.53125 -27.03125 17 -27.03125 C 21.40625 -27.03125 25.117188 -25.71875 28.140625 -23.09375 C 31.160156 -20.46875 32.671875 -17.140625 32.671875 -13.109375 C 32.671875 -9.078125 31.191406 -5.753906 28.234375 -3.140625 C 25.285156 -0.535156 21.539062 0.765625 17 0.765625 C 12.289062 0.765625 8.472656 -0.53125 5.546875 -3.125 Z M 12.5625 -17.5625 C 11.382812 -16.40625 10.796875 -14.921875 10.796875 -13.109375 C 10.796875 -11.296875 11.359375 -9.816406 12.484375 -8.671875 C 13.617188 -7.535156 15.109375 -6.96875 16.953125 -6.96875 C 18.722656 -6.96875 20.179688 -7.546875 21.328125 -8.703125 C 22.472656 -9.867188 23.046875 -11.335938 23.046875 -13.109375 C 23.046875 -14.921875 22.457031 -16.40625 21.28125 -17.5625 C 20.101562 -18.71875 18.660156 -19.296875 16.953125 -19.296875 C 15.210938 -19.296875 13.75 -18.71875 12.5625 -17.5625 Z M 12.5625 -17.5625 "/></g></g></g><g fill="#545454" fill-opacity="1"><g transform="translate(192.681562, 201.374987)"><g><path d="M 14.484375 -27.03125 C 15.992188 -27.03125 17.476562 -26.859375 18.9375 -26.515625 C 20.40625 -26.179688 21.5 -25.84375 22.21875 -25.5 L 23.296875 -24.984375 L 20.328125 -19.046875 C 18.273438 -20.140625 16.328125 -20.6875 14.484375 -20.6875 C 13.460938 -20.6875 12.738281 -20.570312 12.3125 -20.34375 C 11.882812 -20.125 11.671875 -19.707031 11.671875 -19.09375 C 11.671875 -18.957031 11.6875 -18.820312 11.71875 -18.6875 C 11.757812 -18.550781 11.828125 -18.421875 11.921875 -18.296875 C 12.023438 -18.179688 12.117188 -18.082031 12.203125 -18 C 12.296875 -17.914062 12.441406 -17.820312 12.640625 -17.71875 C 12.847656 -17.613281 13.007812 -17.535156 13.125 -17.484375 C 13.25 -17.429688 13.445312 -17.351562 13.71875 -17.25 C 13.988281 -17.15625 14.191406 -17.082031 14.328125 -17.03125 C 14.472656 -16.976562 14.707031 -16.898438 15.03125 -16.796875 C 15.351562 -16.691406 15.597656 -16.625 15.765625 -16.59375 C 16.828125 -16.28125 17.75 -15.9375 18.53125 -15.5625 C 19.320312 -15.1875 20.148438 -14.675781 21.015625 -14.03125 C 21.890625 -13.382812 22.566406 -12.566406 23.046875 -11.578125 C 23.523438 -10.585938 23.765625 -9.457031 23.765625 -8.1875 C 23.765625 -2.21875 19.613281 0.765625 11.3125 0.765625 C 9.4375 0.765625 7.65625 0.476562 5.96875 -0.09375 C 4.28125 -0.675781 3.054688 -1.257812 2.296875 -1.84375 L 1.171875 -2.765625 L 4.859375 -8.953125 C 5.140625 -8.722656 5.5 -8.441406 5.9375 -8.109375 C 6.382812 -7.785156 7.1875 -7.34375 8.34375 -6.78125 C 9.507812 -6.21875 10.515625 -5.9375 11.359375 -5.9375 C 13.242188 -5.9375 14.1875 -6.566406 14.1875 -7.828125 C 14.1875 -8.410156 13.945312 -8.863281 13.46875 -9.1875 C 12.988281 -9.507812 12.175781 -9.875 11.03125 -10.28125 C 9.882812 -10.695312 8.988281 -11.078125 8.34375 -11.421875 C 6.707031 -12.273438 5.410156 -13.238281 4.453125 -14.3125 C 3.492188 -15.382812 3.015625 -16.8125 3.015625 -18.59375 C 3.015625 -21.25 4.046875 -23.316406 6.109375 -24.796875 C 8.179688 -26.285156 10.972656 -27.03125 14.484375 -27.03125 Z M 14.484375 -27.03125 "/></g></g></g><g fill="#545454" fill-opacity="1"><g transform="translate(213.057463, 201.374987)"><g><path d="M 4.609375 -26.265625 L 4.609375 -36.046875 L 13.671875 -36.046875 L 13.671875 -26.265625 L 19.203125 -26.265625 L 19.203125 -19.359375 L 13.671875 -19.359375 L 13.671875 -11.015625 C 13.671875 -8.585938 14.351562 -7.375 15.71875 -7.375 C 16.0625 -7.375 16.421875 -7.441406 16.796875 -7.578125 C 17.171875 -7.710938 17.460938 -7.847656 17.671875 -7.984375 L 17.96875 -8.1875 L 20.21875 -0.875 C 18.28125 0.21875 16.0625 0.765625 13.5625 0.765625 C 11.863281 0.765625 10.398438 0.46875 9.171875 -0.125 C 7.941406 -0.726562 7.007812 -1.53125 6.375 -2.53125 C 5.738281 -3.539062 5.285156 -4.597656 5.015625 -5.703125 C 4.742188 -6.816406 4.609375 -8.003906 4.609375 -9.265625 L 4.609375 -19.359375 L 0.8125 -19.359375 L 0.8125 -26.265625 Z M 4.609375 -26.265625 "/></g></g></g><g fill="#545454" fill-opacity="1"><g transform="translate(228.467029, 201.374987)"><g><path d="M 11.625 -26.265625 L 11.625 -13.78125 C 11.625 -11.175781 12.015625 -9.328125 12.796875 -8.234375 C 13.585938 -7.148438 14.921875 -6.609375 16.796875 -6.609375 C 18.671875 -6.609375 20 -7.148438 20.78125 -8.234375 C 21.570312 -9.328125 21.96875 -11.175781 21.96875 -13.78125 L 21.96875 -26.265625 L 31.03125 -26.265625 L 31.03125 -11.578125 C 31.03125 -7.203125 29.894531 -4.050781 27.625 -2.125 C 25.351562 -0.195312 21.742188 0.765625 16.796875 0.765625 C 11.847656 0.765625 8.238281 -0.195312 5.96875 -2.125 C 3.695312 -4.050781 2.5625 -7.203125 2.5625 -11.578125 L 2.5625 -26.265625 Z M 11.625 -26.265625 "/></g></g></g><g fill="#545454" fill-opacity="1"><g transform="translate(257.239602, 201.374987)"><g><path d="M 3.078125 0 L 3.078125 -26.265625 L 12.140625 -26.265625 L 12.140625 -22.484375 L 12.234375 -22.484375 C 12.304688 -22.617188 12.414062 -22.785156 12.5625 -22.984375 C 12.71875 -23.191406 13.050781 -23.550781 13.5625 -24.0625 C 14.082031 -24.570312 14.628906 -25.03125 15.203125 -25.4375 C 15.785156 -25.851562 16.535156 -26.222656 17.453125 -26.546875 C 18.378906 -26.867188 19.320312 -27.03125 20.28125 -27.03125 C 21.269531 -27.03125 22.238281 -26.894531 23.1875 -26.625 C 24.144531 -26.351562 24.847656 -26.082031 25.296875 -25.8125 L 26.015625 -25.390625 L 22.21875 -17.71875 C 21.09375 -18.675781 19.523438 -19.15625 17.515625 -19.15625 C 16.421875 -19.15625 15.476562 -18.914062 14.6875 -18.4375 C 13.90625 -17.957031 13.351562 -17.375 13.03125 -16.6875 C 12.707031 -16.007812 12.476562 -15.429688 12.34375 -14.953125 C 12.207031 -14.472656 12.140625 -14.097656 12.140625 -13.828125 L 12.140625 0 Z M 3.078125 0 "/></g></g></g><g fill="#545454" fill-opacity="1"><g transform="translate(277.922691, 201.374987)"><g><path d="M 3.078125 0 L 3.078125 -44.03125 L 12.140625 -44.03125 L 12.140625 0 Z M 3.078125 0 "/></g></g></g><g fill="#545454" fill-opacity="1"><g transform="translate(288.314727, 201.374987)"><g><path d="M 22.984375 -26.265625 L 33.4375 -26.265625 L 12.796875 13.3125 L 2.359375 13.3125 L 11.421875 -4.09375 L -1.03125 -26.265625 L 9.421875 -26.265625 L 16.75 -12.796875 Z M 22.984375 -26.265625 "/></g></g></g><g fill="#545454" fill-opacity="1"><g transform="translate(315.909727, 201.374987)"><g><path d="M 8.90625 -10.953125 C 10.539062 -10.953125 11.929688 -10.378906 13.078125 -9.234375 C 14.222656 -8.097656 14.796875 -6.707031 14.796875 -5.0625 C 14.796875 -3.457031 14.222656 -2.082031 13.078125 -0.9375 C 11.929688 0.195312 10.539062 0.765625 8.90625 0.765625 C 7.300781 0.765625 5.925781 0.195312 4.78125 -0.9375 C 3.644531 -2.082031 3.078125 -3.457031 3.078125 -5.0625 C 3.078125 -6.707031 3.644531 -8.097656 4.78125 -9.234375 C 5.925781 -10.378906 7.300781 -10.953125 8.90625 -10.953125 Z M 8.90625 -10.953125 "/></g></g></g><g fill="#000000" fill-opacity="1"><g transform="translate(183.935853, 215.250924)"><g><path d="M 3.078125 -5.53125 C 3.617188 -5.53125 4.070312 -5.441406 4.4375 -5.265625 C 4.800781 -5.097656 4.984375 -4.878906 4.984375 -4.609375 C 4.984375 -4.492188 4.941406 -4.390625 4.859375 -4.296875 C 4.785156 -4.203125 4.691406 -4.15625 4.578125 -4.15625 C 4.484375 -4.15625 4.410156 -4.164062 4.359375 -4.1875 C 4.316406 -4.21875 4.25 -4.265625 4.15625 -4.328125 C 4.113281 -4.367188 4.046875 -4.414062 3.953125 -4.46875 C 3.878906 -4.507812 3.765625 -4.546875 3.609375 -4.578125 C 3.453125 -4.609375 3.316406 -4.625 3.203125 -4.625 C 2.835938 -4.625 2.515625 -4.539062 2.234375 -4.375 C 1.960938 -4.207031 1.75 -3.976562 1.59375 -3.6875 C 1.445312 -3.394531 1.375 -3.070312 1.375 -2.71875 C 1.375 -2.351562 1.445312 -2.023438 1.59375 -1.734375 C 1.75 -1.441406 1.957031 -1.210938 2.21875 -1.046875 C 2.488281 -0.878906 2.796875 -0.796875 3.140625 -0.796875 C 3.503906 -0.796875 3.796875 -0.851562 4.015625 -0.96875 C 4.054688 -1 4.117188 -1.046875 4.203125 -1.109375 C 4.273438 -1.160156 4.335938 -1.195312 4.390625 -1.21875 C 4.441406 -1.25 4.503906 -1.265625 4.578125 -1.265625 C 4.710938 -1.265625 4.816406 -1.222656 4.890625 -1.140625 C 4.972656 -1.054688 5.015625 -0.941406 5.015625 -0.796875 C 5.015625 -0.660156 4.921875 -0.519531 4.734375 -0.375 C 4.554688 -0.238281 4.316406 -0.125 4.015625 -0.03125 C 3.710938 0.0625 3.382812 0.109375 3.03125 0.109375 C 2.507812 0.109375 2.046875 -0.0078125 1.640625 -0.25 C 1.242188 -0.5 0.9375 -0.835938 0.71875 -1.265625 C 0.507812 -1.703125 0.40625 -2.1875 0.40625 -2.71875 C 0.40625 -3.238281 0.515625 -3.710938 0.734375 -4.140625 C 0.960938 -4.578125 1.28125 -4.914062 1.6875 -5.15625 C 2.09375 -5.40625 2.554688 -5.53125 3.078125 -5.53125 Z M 3.078125 -5.53125 "/></g></g></g><g fill="#000000" fill-opacity="1"><g transform="translate(195.950666, 215.250924)"><g><path d="M 5.84375 -2.703125 C 5.84375 -2.160156 5.722656 -1.675781 5.484375 -1.25 C 5.242188 -0.832031 4.914062 -0.5 4.5 -0.25 C 4.082031 -0.0078125 3.625 0.109375 3.125 0.109375 C 2.625 0.109375 2.164062 -0.0078125 1.75 -0.25 C 1.332031 -0.5 1.003906 -0.832031 0.765625 -1.25 C 0.523438 -1.675781 0.40625 -2.160156 0.40625 -2.703125 C 0.40625 -3.234375 0.523438 -3.71875 0.765625 -4.15625 C 1.003906 -4.59375 1.332031 -4.929688 1.75 -5.171875 C 2.164062 -5.410156 2.625 -5.53125 3.125 -5.53125 C 3.625 -5.53125 4.082031 -5.410156 4.5 -5.171875 C 4.914062 -4.929688 5.242188 -4.59375 5.484375 -4.15625 C 5.722656 -3.71875 5.84375 -3.234375 5.84375 -2.703125 Z M 4.875 -2.703125 C 4.875 -3.078125 4.796875 -3.410156 4.640625 -3.703125 C 4.484375 -3.992188 4.269531 -4.21875 4 -4.375 C 3.738281 -4.539062 3.445312 -4.625 3.125 -4.625 C 2.800781 -4.625 2.503906 -4.539062 2.234375 -4.375 C 1.972656 -4.21875 1.765625 -3.992188 1.609375 -3.703125 C 1.453125 -3.410156 1.375 -3.078125 1.375 -2.703125 C 1.375 -2.335938 1.453125 -2.007812 1.609375 -1.71875 C 1.765625 -1.4375 1.972656 -1.210938 2.234375 -1.046875 C 2.503906 -0.878906 2.800781 -0.796875 3.125 -0.796875 C 3.445312 -0.796875 3.738281 -0.878906 4 -1.046875 C 4.269531 -1.210938 4.484375 -1.4375 4.640625 -1.71875 C 4.796875 -2.007812 4.875 -2.335938 4.875 -2.703125 Z M 4.875 -2.703125 "/></g></g></g><g fill="#000000" fill-opacity="1"><g transform="translate(208.913154, 215.250924)"><g><path d="M 3.421875 -5.53125 C 3.597656 -5.53125 3.75 -5.484375 3.875 -5.390625 C 4.007812 -5.296875 4.078125 -5.179688 4.078125 -5.046875 C 4.078125 -4.878906 4.035156 -4.75 3.953125 -4.65625 C 3.867188 -4.570312 3.765625 -4.53125 3.640625 -4.53125 C 3.578125 -4.53125 3.484375 -4.550781 3.359375 -4.59375 C 3.210938 -4.644531 3.097656 -4.671875 3.015625 -4.671875 C 2.804688 -4.671875 2.597656 -4.597656 2.390625 -4.453125 C 2.191406 -4.304688 2.03125 -4.101562 1.90625 -3.84375 C 1.78125 -3.582031 1.71875 -3.296875 1.71875 -2.984375 L 1.71875 -0.5 C 1.71875 -0.351562 1.671875 -0.234375 1.578125 -0.140625 C 1.484375 -0.046875 1.363281 0 1.21875 0 C 1.070312 0 0.953125 -0.046875 0.859375 -0.140625 C 0.773438 -0.234375 0.734375 -0.351562 0.734375 -0.5 L 0.734375 -4.90625 C 0.734375 -5.039062 0.78125 -5.15625 0.875 -5.25 C 0.96875 -5.351562 1.082031 -5.40625 1.21875 -5.40625 C 1.363281 -5.40625 1.484375 -5.351562 1.578125 -5.25 C 1.671875 -5.15625 1.71875 -5.039062 1.71875 -4.90625 L 1.71875 -4.390625 C 1.863281 -4.722656 2.085938 -4.992188 2.390625 -5.203125 C 2.691406 -5.410156 3.035156 -5.519531 3.421875 -5.53125 Z M 3.421875 -5.53125 "/></g></g></g><g fill="#000000" fill-opacity="1"><g transform="translate(219.887597, 215.250924)"><g><path d="M 3.421875 -5.53125 C 3.597656 -5.53125 3.75 -5.484375 3.875 -5.390625 C 4.007812 -5.296875 4.078125 -5.179688 4.078125 -5.046875 C 4.078125 -4.878906 4.035156 -4.75 3.953125 -4.65625 C 3.867188 -4.570312 3.765625 -4.53125 3.640625 -4.53125 C 3.578125 -4.53125 3.484375 -4.550781 3.359375 -4.59375 C 3.210938 -4.644531 3.097656 -4.671875 3.015625 -4.671875 C 2.804688 -4.671875 2.597656 -4.597656 2.390625 -4.453125 C 2.191406 -4.304688 2.03125 -4.101562 1.90625 -3.84375 C 1.78125 -3.582031 1.71875 -3.296875 1.71875 -2.984375 L 1.71875 -0.5 C 1.71875 -0.351562 1.671875 -0.234375 1.578125 -0.140625 C 1.484375 -0.046875 1.363281 0 1.21875 0 C 1.070312 0 0.953125 -0.046875 0.859375 -0.140625 C 0.773438 -0.234375 0.734375 -0.351562 0.734375 -0.5 L 0.734375 -4.90625 C 0.734375 -5.039062 0.78125 -5.15625 0.875 -5.25 C 0.96875 -5.351562 1.082031 -5.40625 1.21875 -5.40625 C 1.363281 -5.40625 1.484375 -5.351562 1.578125 -5.25 C 1.671875 -5.15625 1.71875 -5.039062 1.71875 -4.90625 L 1.71875 -4.390625 C 1.863281 -4.722656 2.085938 -4.992188 2.390625 -5.203125 C 2.691406 -5.410156 3.035156 -5.519531 3.421875 -5.53125 Z M 3.421875 -5.53125 "/></g></g></g><g fill="#000000" fill-opacity="1"><g transform="translate(230.862039, 215.250924)"><g><path d="M 5.46875 -2.90625 C 5.46875 -2.78125 5.414062 -2.675781 5.3125 -2.59375 C 5.21875 -2.507812 5.109375 -2.46875 4.984375 -2.46875 L 1.34375 -2.46875 C 1.394531 -1.96875 1.585938 -1.5625 1.921875 -1.25 C 2.253906 -0.945312 2.660156 -0.796875 3.140625 -0.796875 C 3.472656 -0.796875 3.742188 -0.84375 3.953125 -0.9375 C 4.160156 -1.039062 4.34375 -1.164062 4.5 -1.3125 C 4.601562 -1.375 4.703125 -1.40625 4.796875 -1.40625 C 4.910156 -1.40625 5.003906 -1.363281 5.078125 -1.28125 C 5.160156 -1.207031 5.203125 -1.113281 5.203125 -1 C 5.203125 -0.851562 5.132812 -0.722656 5 -0.609375 C 4.800781 -0.410156 4.535156 -0.238281 4.203125 -0.09375 C 3.878906 0.0390625 3.546875 0.109375 3.203125 0.109375 C 2.640625 0.109375 2.144531 -0.00390625 1.71875 -0.234375 C 1.300781 -0.472656 0.976562 -0.800781 0.75 -1.21875 C 0.519531 -1.644531 0.40625 -2.125 0.40625 -2.65625 C 0.40625 -3.226562 0.519531 -3.734375 0.75 -4.171875 C 0.988281 -4.609375 1.300781 -4.941406 1.6875 -5.171875 C 2.082031 -5.410156 2.503906 -5.53125 2.953125 -5.53125 C 3.390625 -5.53125 3.800781 -5.414062 4.1875 -5.1875 C 4.570312 -4.957031 4.878906 -4.644531 5.109375 -4.25 C 5.347656 -3.851562 5.46875 -3.40625 5.46875 -2.90625 Z M 2.953125 -4.625 C 2.566406 -4.625 2.234375 -4.515625 1.953125 -4.296875 C 1.671875 -4.078125 1.484375 -3.742188 1.390625 -3.296875 L 4.4375 -3.296875 L 4.4375 -3.375 C 4.40625 -3.738281 4.238281 -4.035156 3.9375 -4.265625 C 3.644531 -4.503906 3.316406 -4.625 2.953125 -4.625 Z M 2.953125 -4.625 "/></g></g></g><g fill="#000000" fill-opacity="1"><g transform="translate(243.453692, 215.250924)"><g><path d="M 3.078125 -5.53125 C 3.617188 -5.53125 4.070312 -5.441406 4.4375 -5.265625 C 4.800781 -5.097656 4.984375 -4.878906 4.984375 -4.609375 C 4.984375 -4.492188 4.941406 -4.390625 4.859375 -4.296875 C 4.785156 -4.203125 4.691406 -4.15625 4.578125 -4.15625 C 4.484375 -4.15625 4.410156 -4.164062 4.359375 -4.1875 C 4.316406 -4.21875 4.25 -4.265625 4.15625 -4.328125 C 4.113281 -4.367188 4.046875 -4.414062 3.953125 -4.46875 C 3.878906 -4.507812 3.765625 -4.546875 3.609375 -4.578125 C 3.453125 -4.609375 3.316406 -4.625 3.203125 -4.625 C 2.835938 -4.625 2.515625 -4.539062 2.234375 -4.375 C 1.960938 -4.207031 1.75 -3.976562 1.59375 -3.6875 C 1.445312 -3.394531 1.375 -3.070312 1.375 -2.71875 C 1.375 -2.351562 1.445312 -2.023438 1.59375 -1.734375 C 1.75 -1.441406 1.957031 -1.210938 2.21875 -1.046875 C 2.488281 -0.878906 2.796875 -0.796875 3.140625 -0.796875 C 3.503906 -0.796875 3.796875 -0.851562 4.015625 -0.96875 C 4.054688 -1 4.117188 -1.046875 4.203125 -1.109375 C 4.273438 -1.160156 4.335938 -1.195312 4.390625 -1.21875 C 4.441406 -1.25 4.503906 -1.265625 4.578125 -1.265625 C 4.710938 -1.265625 4.816406 -1.222656 4.890625 -1.140625 C 4.972656 -1.054688 5.015625 -0.941406 5.015625 -0.796875 C 5.015625 -0.660156 4.921875 -0.519531 4.734375 -0.375 C 4.554688 -0.238281 4.316406 -0.125 4.015625 -0.03125 C 3.710938 0.0625 3.382812 0.109375 3.03125 0.109375 C 2.507812 0.109375 2.046875 -0.0078125 1.640625 -0.25 C 1.242188 -0.5 0.9375 -0.835938 0.71875 -1.265625 C 0.507812 -1.703125 0.40625 -2.1875 0.40625 -2.71875 C 0.40625 -3.238281 0.515625 -3.710938 0.734375 -4.140625 C 0.960938 -4.578125 1.28125 -4.914062 1.6875 -5.15625 C 2.09375 -5.40625 2.554688 -5.53125 3.078125 -5.53125 Z M 3.078125 -5.53125 "/></g></g></g><g fill="#000000" fill-opacity="1"><g transform="translate(255.468506, 215.250924)"><g><path d="M 2.203125 -4.4375 L 2.203125 -1.375 C 2.203125 -1.03125 2.351562 -0.859375 2.65625 -0.859375 C 2.707031 -0.859375 2.773438 -0.867188 2.859375 -0.890625 C 2.941406 -0.910156 3.003906 -0.921875 3.046875 -0.921875 C 3.140625 -0.921875 3.21875 -0.882812 3.28125 -0.8125 C 3.34375 -0.738281 3.375 -0.644531 3.375 -0.53125 C 3.375 -0.382812 3.289062 -0.257812 3.125 -0.15625 C 2.957031 -0.0507812 2.769531 0 2.5625 0 C 2.34375 0 2.132812 -0.0195312 1.9375 -0.0625 C 1.75 -0.113281 1.582031 -0.238281 1.4375 -0.4375 C 1.289062 -0.632812 1.21875 -0.929688 1.21875 -1.328125 L 1.21875 -4.4375 L 0.625 -4.4375 C 0.488281 -4.4375 0.378906 -4.476562 0.296875 -4.5625 C 0.210938 -4.65625 0.171875 -4.769531 0.171875 -4.90625 C 0.171875 -5.03125 0.210938 -5.132812 0.296875 -5.21875 C 0.378906 -5.300781 0.488281 -5.34375 0.625 -5.34375 L 1.21875 -5.34375 L 1.21875 -6.203125 C 1.21875 -6.347656 1.265625 -6.46875 1.359375 -6.5625 C 1.453125 -6.65625 1.570312 -6.703125 1.71875 -6.703125 C 1.851562 -6.703125 1.96875 -6.65625 2.0625 -6.5625 C 2.15625 -6.46875 2.203125 -6.347656 2.203125 -6.203125 L 2.203125 -5.34375 L 3.046875 -5.34375 C 3.179688 -5.34375 3.289062 -5.296875 3.375 -5.203125 C 3.457031 -5.117188 3.5 -5.015625 3.5 -4.890625 C 3.5 -4.753906 3.457031 -4.644531 3.375 -4.5625 C 3.289062 -4.476562 3.179688 -4.4375 3.046875 -4.4375 Z M 2.203125 -4.4375 "/></g></g></g><g fill="#000000" fill-opacity="1"><g transform="translate(266.103025, 215.250924)"><g><path d="M 5.84375 -2.703125 C 5.84375 -2.160156 5.722656 -1.675781 5.484375 -1.25 C 5.242188 -0.832031 4.914062 -0.5 4.5 -0.25 C 4.082031 -0.0078125 3.625 0.109375 3.125 0.109375 C 2.625 0.109375 2.164062 -0.0078125 1.75 -0.25 C 1.332031 -0.5 1.003906 -0.832031 0.765625 -1.25 C 0.523438 -1.675781 0.40625 -2.160156 0.40625 -2.703125 C 0.40625 -3.234375 0.523438 -3.71875 0.765625 -4.15625 C 1.003906 -4.59375 1.332031 -4.929688 1.75 -5.171875 C 2.164062 -5.410156 2.625 -5.53125 3.125 -5.53125 C 3.625 -5.53125 4.082031 -5.410156 4.5 -5.171875 C 4.914062 -4.929688 5.242188 -4.59375 5.484375 -4.15625 C 5.722656 -3.71875 5.84375 -3.234375 5.84375 -2.703125 Z M 4.875 -2.703125 C 4.875 -3.078125 4.796875 -3.410156 4.640625 -3.703125 C 4.484375 -3.992188 4.269531 -4.21875 4 -4.375 C 3.738281 -4.539062 3.445312 -4.625 3.125 -4.625 C 2.800781 -4.625 2.503906 -4.539062 2.234375 -4.375 C 1.972656 -4.21875 1.765625 -3.992188 1.609375 -3.703125 C 1.453125 -3.410156 1.375 -3.078125 1.375 -2.703125 C 1.375 -2.335938 1.453125 -2.007812 1.609375 -1.71875 C 1.765625 -1.4375 1.972656 -1.210938 2.234375 -1.046875 C 2.503906 -0.878906 2.800781 -0.796875 3.125 -0.796875 C 3.445312 -0.796875 3.738281 -0.878906 4 -1.046875 C 4.269531 -1.210938 4.484375 -1.4375 4.640625 -1.71875 C 4.796875 -2.007812 4.875 -2.335938 4.875 -2.703125 Z M 4.875 -2.703125 "/></g></g></g><g fill="#000000" fill-opacity="1"><g transform="translate(279.065512, 215.250924)"><g><path d="M 3.421875 -5.53125 C 3.597656 -5.53125 3.75 -5.484375 3.875 -5.390625 C 4.007812 -5.296875 4.078125 -5.179688 4.078125 -5.046875 C 4.078125 -4.878906 4.035156 -4.75 3.953125 -4.65625 C 3.867188 -4.570312 3.765625 -4.53125 3.640625 -4.53125 C 3.578125 -4.53125 3.484375 -4.550781 3.359375 -4.59375 C 3.210938 -4.644531 3.097656 -4.671875 3.015625 -4.671875 C 2.804688 -4.671875 2.597656 -4.597656 2.390625 -4.453125 C 2.191406 -4.304688 2.03125 -4.101562 1.90625 -3.84375 C 1.78125 -3.582031 1.71875 -3.296875 1.71875 -2.984375 L 1.71875 -0.5 C 1.71875 -0.351562 1.671875 -0.234375 1.578125 -0.140625 C 1.484375 -0.046875 1.363281 0 1.21875 0 C 1.070312 0 0.953125 -0.046875 0.859375 -0.140625 C 0.773438 -0.234375 0.734375 -0.351562 0.734375 -0.5 L 0.734375 -4.90625 C 0.734375 -5.039062 0.78125 -5.15625 0.875 -5.25 C 0.96875 -5.351562 1.082031 -5.40625 1.21875 -5.40625 C 1.363281 -5.40625 1.484375 -5.351562 1.578125 -5.25 C 1.671875 -5.15625 1.71875 -5.039062 1.71875 -4.90625 L 1.71875 -4.390625 C 1.863281 -4.722656 2.085938 -4.992188 2.390625 -5.203125 C 2.691406 -5.410156 3.035156 -5.519531 3.421875 -5.53125 Z M 3.421875 -5.53125 "/></g></g></g></svg>