<svg xmlns="http://www.w3.org/2000/svg" xmlns:xlink="http://www.w3.org/1999/xlink" width="500" zoomAndPan="magnify" viewBox="0 0 375 374.999991" height="500" preserveAspectRatio="xMidYMid meet" version="1.0"><defs><clipPath id="52127ff8f8"><path d="M 127 91.085938 L 245 91.085938 L 245 223 L 127 223 Z M 127 91.085938 " clip-rule="nonzero"/></clipPath><clipPath id="f92e143df4"><path d="M 191 220 L 284 220 L 284 283.835938 L 191 283.835938 Z M 191 220 " clip-rule="nonzero"/></clipPath><clipPath id="4e28f27fb0"><path d="M 91 220 L 194 220 L 194 283.835938 L 91 283.835938 Z M 91 220 " clip-rule="nonzero"/></clipPath></defs><path fill="#a6a6a6" d="M 189.972656 159.519531 C 190.121094 159.21875 190.273438 159.070312 190.273438 159.070312 C 191.171875 157.71875 190.871094 155.917969 189.523438 154.867188 C 188.171875 153.96875 186.222656 154.269531 185.320312 155.617188 C 185.320312 155.617188 185.171875 155.917969 184.871094 156.367188 C 183.972656 157.71875 184.421875 159.667969 185.921875 160.417969 C 186.371094 160.71875 186.972656 160.871094 187.421875 160.871094 C 188.324219 161.019531 189.371094 160.417969 189.972656 159.519531 Z M 189.972656 159.519531 " fill-opacity="1" fill-rule="nonzero"/><g clip-path="url(#52127ff8f8)"><path fill="#a6a6a6" d="M 201.972656 118.417969 C 201.972656 118.566406 201.972656 118.566406 201.972656 118.714844 C 201.972656 118.867188 202.574219 127.117188 197.023438 133.117188 C 196.871094 133.269531 196.722656 133.417969 196.722656 133.566406 C 196.574219 133.867188 192.671875 140.617188 197.773438 149.320312 C 198.523438 150.519531 198.824219 151.117188 231.074219 163.269531 C 233.324219 164.167969 235.125 165.667969 236.175781 167.46875 C 237.675781 170.019531 239.175781 174.519531 238.125 181.269531 C 237.976562 182.171875 234.226562 203.171875 237.523438 220.722656 C 237.675781 221.324219 237.976562 221.921875 238.425781 222.371094 C 239.773438 222.371094 241.125 222.222656 242.625 222.222656 C 243.226562 221.621094 243.675781 220.574219 243.375 219.523438 C 240.375 203.023438 243.976562 182.320312 243.976562 182.171875 C 245.324219 173.621094 243.226562 167.769531 241.277344 164.320312 C 239.476562 161.320312 236.625 158.917969 233.023438 157.570312 C 216.824219 151.417969 205.125 146.917969 202.421875 145.566406 C 200.023438 141.066406 201.222656 137.617188 201.671875 136.71875 C 208.273438 129.21875 207.972656 119.765625 207.824219 118.265625 C 207.972656 109.417969 205.574219 102.664062 200.921875 97.867188 C 194.773438 91.414062 186.371094 91.414062 186.070312 91.414062 C 185.773438 91.414062 177.371094 91.414062 171.070312 98.015625 C 166.421875 102.816406 164.019531 109.714844 164.171875 118.417969 C 164.019531 119.917969 163.722656 129.367188 170.320312 136.867188 C 170.769531 137.769531 171.972656 141.21875 169.570312 145.71875 C 166.871094 147.070312 155.171875 151.71875 138.96875 157.71875 C 135.519531 159.070312 132.519531 161.46875 130.71875 164.46875 C 128.769531 167.769531 126.667969 173.621094 128.019531 182.320312 C 128.019531 182.46875 131.617188 203.023438 128.617188 219.671875 C 128.46875 220.722656 128.769531 221.621094 129.367188 222.371094 C 130.867188 222.371094 132.21875 222.371094 133.570312 222.371094 C 134.019531 221.921875 134.320312 221.472656 134.46875 220.722656 C 137.621094 203.023438 134.019531 182.171875 133.867188 181.269531 C 132.820312 174.371094 134.320312 170.019531 135.820312 167.46875 C 136.871094 165.519531 138.820312 164.019531 140.917969 163.269531 C 173.019531 151.117188 173.472656 150.519531 174.222656 149.320312 C 179.320312 140.617188 175.421875 133.867188 175.273438 133.566406 C 175.121094 133.417969 175.121094 133.269531 174.972656 133.117188 C 169.421875 127.117188 170.019531 118.867188 170.019531 118.714844 C 170.019531 118.566406 170.019531 118.566406 170.019531 118.417969 C 169.871094 111.214844 171.671875 105.816406 175.121094 102.214844 C 179.773438 97.566406 185.921875 97.414062 186.070312 97.414062 C 186.070312 97.414062 192.222656 97.566406 196.871094 102.214844 C 200.324219 105.816406 202.125 111.214844 201.972656 118.417969 Z M 201.972656 118.417969 " fill-opacity="1" fill-rule="nonzero"/></g><path fill="#a6a6a6" d="M 223.875 182.171875 C 222.222656 182.171875 220.875 183.519531 220.875 185.171875 C 220.875 185.320312 220.875 200.472656 216.222656 214.421875 C 216.222656 214.421875 216.222656 214.574219 216.222656 214.574219 C 216.074219 214.871094 214.875 219.972656 214.875 225.972656 C 216.824219 225.375 218.773438 224.921875 220.875 224.472656 C 221.023438 220.273438 221.925781 216.824219 222.074219 216.222656 C 227.023438 201.371094 227.023438 185.921875 227.023438 185.171875 C 226.875 183.519531 225.523438 182.171875 223.875 182.171875 Z M 223.875 182.171875 " fill-opacity="1" fill-rule="nonzero"/><path fill="#a6a6a6" d="M 175.722656 186.671875 C 175.722656 187.269531 175.722656 187.722656 175.722656 188.320312 C 175.722656 189.972656 176.921875 191.320312 178.570312 191.472656 C 178.570312 191.472656 178.570312 191.472656 178.722656 191.472656 C 180.371094 191.472656 181.722656 190.121094 181.722656 188.621094 C 181.722656 188.171875 181.722656 187.722656 181.722656 187.121094 C 181.871094 185.46875 180.523438 184.121094 178.871094 183.96875 C 177.222656 183.671875 175.871094 185.019531 175.722656 186.671875 Z M 175.722656 186.671875 " fill-opacity="1" fill-rule="nonzero"/><path fill="#a6a6a6" d="M 185.320312 233.171875 C 185.320312 233.171875 185.472656 233.171875 185.472656 233.171875 C 187.121094 233.023438 188.324219 231.671875 188.171875 230.023438 C 188.171875 229.574219 188.023438 228.972656 188.023438 228.375 C 187.871094 226.722656 186.371094 225.523438 184.722656 225.671875 C 183.070312 225.824219 181.871094 227.324219 182.023438 228.972656 C 182.023438 229.421875 182.171875 229.875 182.171875 230.472656 C 182.472656 231.972656 183.820312 233.171875 185.320312 233.171875 Z M 185.320312 233.171875 " fill-opacity="1" fill-rule="nonzero"/><path fill="#a6a6a6" d="M 178.570312 210.070312 C 178.871094 211.421875 180.222656 212.324219 181.421875 212.324219 C 181.722656 212.324219 182.023438 212.324219 182.171875 212.171875 C 183.820312 211.722656 184.722656 210.070312 184.273438 208.421875 L 183.820312 206.921875 C 183.371094 205.273438 181.722656 204.371094 180.070312 204.820312 C 178.421875 205.273438 177.523438 206.921875 177.972656 208.570312 Z M 178.570312 210.070312 " fill-opacity="1" fill-rule="nonzero"/><path fill="#a6a6a6" d="M 187.722656 242.472656 C 188.023438 242.175781 188.324219 241.574219 188.324219 241.125 C 188.324219 240.675781 188.472656 240.074219 188.472656 239.472656 C 188.621094 237.824219 187.273438 236.472656 185.621094 236.324219 C 184.421875 236.171875 183.523438 236.773438 182.921875 237.824219 C 184.570312 239.175781 186.222656 240.824219 187.722656 242.472656 Z M 187.722656 242.472656 " fill-opacity="1" fill-rule="nonzero"/><path fill="#a6a6a6" d="M 176.171875 199.273438 C 176.320312 200.773438 177.671875 201.820312 179.171875 201.820312 C 179.320312 201.820312 179.472656 201.820312 179.621094 201.820312 C 181.273438 201.671875 182.472656 200.171875 182.171875 198.519531 C 182.171875 198.070312 182.023438 197.621094 182.023438 197.019531 C 181.871094 195.371094 180.371094 194.171875 178.722656 194.320312 C 177.070312 194.472656 175.871094 195.972656 176.023438 197.621094 C 176.171875 198.222656 176.171875 198.820312 176.171875 199.273438 Z M 176.171875 199.273438 " fill-opacity="1" fill-rule="nonzero"/><path fill="#a6a6a6" d="M 180.972656 220.273438 C 181.273438 221.773438 182.472656 222.671875 183.972656 222.671875 C 184.121094 222.671875 184.421875 222.671875 184.570312 222.671875 C 186.222656 222.371094 187.273438 220.722656 186.972656 219.222656 C 186.820312 218.773438 186.820312 218.171875 186.671875 217.722656 C 186.371094 216.074219 184.722656 215.023438 183.070312 215.324219 C 181.421875 215.621094 180.371094 217.273438 180.671875 218.921875 C 180.671875 219.222656 180.820312 219.671875 180.972656 220.273438 Z M 180.972656 220.273438 " fill-opacity="1" fill-rule="nonzero"/><path fill="#a6a6a6" d="M 177.222656 175.570312 C 177.070312 176.019531 177.070312 176.621094 176.921875 177.070312 C 176.621094 178.71875 177.671875 180.21875 179.320312 180.671875 C 179.472656 180.671875 179.773438 180.671875 179.921875 180.671875 C 181.273438 180.671875 182.621094 179.621094 182.921875 178.269531 C 183.070312 177.820312 183.070312 177.371094 183.222656 176.769531 C 183.523438 175.121094 182.621094 173.621094 180.972656 173.171875 C 179.320312 173.019531 177.671875 174.070312 177.222656 175.570312 Z M 177.222656 175.570312 " fill-opacity="1" fill-rule="nonzero"/><path fill="#a6a6a6" d="M 181.722656 170.320312 C 182.023438 170.46875 182.472656 170.46875 182.773438 170.46875 C 183.972656 170.46875 185.171875 169.71875 185.621094 168.519531 C 185.773438 168.070312 185.921875 167.621094 186.070312 167.167969 C 186.671875 165.667969 185.921875 163.871094 184.421875 163.269531 C 182.921875 162.667969 181.121094 163.417969 180.523438 164.917969 C 180.371094 165.371094 180.070312 165.820312 179.921875 166.417969 C 179.472656 168.070312 180.222656 169.71875 181.722656 170.320312 Z M 181.722656 170.320312 " fill-opacity="1" fill-rule="nonzero"/><g clip-path="url(#f92e143df4)"><path fill="#a6a6a6" d="M 277.425781 222.671875 C 276.675781 225.375 263.625 228.222656 249.976562 228.523438 C 222.824219 227.472656 203.324219 233.625 191.921875 246.523438 C 191.773438 246.824219 191.472656 246.972656 191.324219 247.273438 C 192.523438 249.074219 193.574219 251.023438 194.472656 252.824219 C 195.074219 252.074219 195.671875 251.175781 196.421875 250.425781 C 206.472656 238.875 224.472656 233.472656 249.824219 234.375 C 249.824219 234.375 249.976562 234.375 249.976562 234.375 C 256.578125 234.222656 269.777344 233.472656 277.425781 229.722656 C 277.128906 235.273438 275.328125 244.125 268.425781 252.523438 C 256.125 267.527344 232.875 275.777344 199.421875 277.125 C 199.273438 279.675781 199.121094 281.328125 198.972656 281.625 C 198.824219 282.226562 198.671875 282.675781 198.523438 283.277344 C 234.375 282.078125 259.578125 273.074219 273.078125 256.425781 C 286.128906 240.523438 283.277344 223.574219 283.128906 222.824219 C 282.828125 221.472656 281.777344 220.421875 280.277344 220.421875 C 279.078125 220.421875 277.726562 221.324219 277.425781 222.671875 Z M 277.425781 222.671875 " fill-opacity="1" fill-rule="nonzero"/></g><g clip-path="url(#4e28f27fb0)"><path fill="#a6a6a6" d="M 178.871094 283.425781 C 179.023438 283.425781 179.023438 283.425781 178.871094 283.425781 C 180.523438 283.425781 181.871094 282.078125 181.871094 280.425781 C 181.871094 278.777344 180.671875 277.425781 178.871094 277.425781 C 143.621094 276.527344 119.167969 268.277344 106.417969 252.824219 C 99.515625 244.425781 97.71875 235.574219 97.417969 229.875 C 105.066406 233.625 118.269531 234.375 124.867188 234.523438 C 124.867188 234.523438 125.019531 234.523438 125.019531 234.523438 C 150.371094 233.625 168.222656 238.875 178.421875 250.425781 C 189.671875 263.175781 187.121094 279.675781 187.121094 279.828125 C 186.820312 281.476562 187.871094 282.976562 189.523438 283.277344 C 191.171875 283.578125 192.671875 282.527344 192.972656 280.875 C 193.121094 280.125 196.121094 261.523438 182.921875 246.523438 C 171.519531 233.625 152.019531 227.472656 124.867188 228.523438 C 111.519531 228.222656 98.167969 225.375 97.417969 222.671875 C 97.417969 221.324219 96.066406 220.421875 94.714844 220.421875 C 93.367188 220.421875 92.167969 221.472656 91.867188 222.824219 C 91.714844 223.574219 88.867188 240.375 101.917969 256.425781 C 115.867188 273.375 141.667969 282.527344 178.871094 283.425781 Z M 178.871094 283.425781 " fill-opacity="1" fill-rule="nonzero"/></g><path fill="#a6a6a6" d="M 205.574219 268.425781 C 206.773438 268.425781 207.824219 267.675781 208.273438 266.625 C 212.472656 256.726562 225.675781 255.824219 237.523438 255.074219 C 246.527344 254.476562 254.328125 254.023438 257.175781 249.074219 C 257.925781 247.574219 257.476562 245.773438 256.125 245.023438 C 254.625 244.273438 252.824219 244.722656 252.074219 246.074219 C 250.875 248.324219 243.527344 248.773438 237.226562 249.074219 C 224.472656 249.824219 208.574219 250.875 202.875 264.226562 C 202.273438 265.726562 202.875 267.527344 204.523438 268.125 C 204.824219 268.277344 205.125 268.425781 205.574219 268.425781 Z M 205.574219 268.425781 " fill-opacity="1" fill-rule="nonzero"/><path fill="#a6a6a6" d="M 143.46875 249.074219 C 137.167969 248.625 129.820312 248.175781 128.617188 246.074219 C 127.867188 244.574219 125.917969 244.125 124.570312 245.023438 C 123.070312 245.773438 122.617188 247.722656 123.519531 249.074219 C 126.367188 254.023438 134.167969 254.625 143.167969 255.074219 C 154.871094 255.824219 168.070312 256.726562 172.421875 266.625 C 172.871094 267.824219 174.070312 268.425781 175.121094 268.425781 C 175.570312 268.425781 175.871094 268.277344 176.320312 268.125 C 177.820312 267.527344 178.570312 265.726562 177.972656 264.226562 C 172.121094 250.875 156.21875 249.824219 143.46875 249.074219 Z M 143.46875 249.074219 " fill-opacity="1" fill-rule="nonzero"/><path fill="#a6a6a6" d="M 151.269531 185.171875 C 151.269531 183.519531 149.921875 182.171875 148.269531 182.171875 C 146.621094 182.171875 145.269531 183.519531 145.269531 185.171875 C 145.269531 185.769531 145.269531 201.371094 150.21875 216.222656 C 150.371094 216.824219 151.121094 219.972656 151.421875 224.023438 C 153.519531 224.324219 155.46875 224.773438 157.421875 225.222656 C 157.269531 219.523438 156.070312 214.871094 156.070312 214.574219 C 156.070312 214.574219 156.070312 214.421875 156.070312 214.421875 C 151.269531 200.472656 151.269531 185.320312 151.269531 185.171875 Z M 151.269531 185.171875 " fill-opacity="1" fill-rule="nonzero"/></svg>